<svg width="109" height="23" viewBox="0 0 109 23" fill="none" xmlns="http://www.w3.org/2000/svg">
<path fill-rule="evenodd" clip-rule="evenodd" d="M96.4581 0L12.5418 0C5.61517 0 0 5.14873 0 11.5C0 17.8513 5.61517 23 12.5418 23L96.4581 23C103.385 23 109 17.8513 109 11.5C109 5.14873 103.385 0 96.4581 0ZM25.8004 9.88641H22.3697L20.6662 19.419C20.5711 19.9941 20.3466 20.5052 19.9927 20.9525C19.8637 21.118 19.7213 21.2705 19.5655 21.4098H14.4858C14.3788 21.2705 14.2891 21.118 14.2167 20.9525C14.0266 20.5052 13.979 19.9941 14.0741 19.419L15.7776 9.88641H12.3469L10.6037 19.6918C10.5042 20.2525 10.4835 20.7774 10.5415 21.2667C5.51824 20.4653 1.69561 16.3934 1.69561 11.4907C1.69561 6.0125 6.46827 1.57157 12.3557 1.57157L22.371 1.57157H22.3721L96.6443 1.57157C101.867 1.57157 106.213 5.06645 107.127 9.67998L106.351 11.2417L106.351 11.2428L101.954 20.0935L100.387 10.5559L100.386 10.5548L100.276 9.88641H96.4654L96.5081 10.1083L96.5083 10.1093L98.6509 21.2343C98.001 21.3495 97.3302 21.4098 96.6443 21.4098L92.8635 21.4098C93.5811 20.3517 94.0733 19.0959 94.34 17.6423C94.6358 15.9662 94.546 14.536 94.0706 13.3515C93.6005 12.162 92.832 11.2528 91.765 10.6237C90.7033 9.99454 89.4409 9.67998 87.9777 9.67998C86.5674 9.67998 85.2495 9.97734 84.024 10.5721C82.7986 11.1618 81.7606 12.022 80.9102 13.1524C80.0598 14.278 79.492 15.6492 79.2067 17.2663C78.9225 18.8721 78.9943 20.2532 79.4222 21.4098H75.9167L77.9727 9.88641H74.5578L72.8701 19.3822H72.7355L67.4111 9.88641H64.4003L62.3443 21.4098H60.933H59.5216L61.5776 9.88641H58.1469L56.0909 21.4098H48.9267L50.5089 12.5184H55.4768L55.9521 9.88641L42.6253 9.88641L42.1499 12.5184H47.1178L45.5356 21.4098H38.819C38.8999 21.1733 38.9637 20.9275 39.0104 20.6723C39.1213 20.0432 39.1002 19.4854 38.947 18.9988C38.7938 18.5122 38.5297 18.0895 38.1547 17.7307C37.7849 17.3719 37.3254 17.0697 36.776 16.8239C36.232 16.5782 35.6193 16.3816 34.9379 16.2341L33.5434 15.9097C33.2106 15.836 32.8963 15.7475 32.6005 15.6443C32.3047 15.5362 32.0485 15.4109 31.832 15.2683C31.6207 15.1209 31.4649 14.9464 31.3645 14.7449C31.2694 14.5434 31.2509 14.3074 31.309 14.0371C31.3671 13.7078 31.5177 13.4178 31.7607 13.1672C32.0089 12.9116 32.339 12.7125 32.7511 12.57C33.1631 12.4225 33.649 12.3488 34.2089 12.3488C35.0329 12.3488 35.6483 12.5159 36.055 12.8501C36.467 13.1844 36.6598 13.6587 36.6334 14.273H39.9215C40.0694 13.3589 39.9532 12.5577 39.5729 11.8696C39.1926 11.1815 38.5878 10.6458 37.7585 10.2624C36.9292 9.87412 35.9124 9.67998 34.7081 9.67998C33.5249 9.67998 32.4341 9.87167 31.4358 10.255C30.4428 10.6335 29.6188 11.1668 28.9638 11.8549C28.3141 12.538 27.9047 13.3367 27.7357 14.2509C27.5455 15.3666 27.7859 16.2538 28.4567 16.9124C29.1275 17.571 30.1179 18.0551 31.4279 18.3648L33.1234 18.7776C33.6886 18.9054 34.1614 19.0529 34.5417 19.22C34.9273 19.3822 35.2072 19.5788 35.3816 19.8098C35.5559 20.0408 35.6113 20.3258 35.5479 20.665C35.5006 20.9365 35.3915 21.1848 35.2205 21.4098L29.7513 21.4098C29.5807 21.0893 29.5215 20.7009 29.5739 20.2447H26.254C26.1917 20.6584 26.1707 21.0467 26.1911 21.4098H23.4891C23.7586 20.8801 23.948 20.3075 24.0573 19.6918L25.8004 9.88641ZM90.9251 17.2663C91.11 16.2292 91.1021 15.3592 90.9014 14.6564C90.7059 13.9486 90.3467 13.4129 89.8238 13.0492C89.3009 12.6855 88.6406 12.5036 87.843 12.5036C86.9767 12.5036 86.1818 12.7052 85.4581 13.1082C84.7398 13.5112 84.1323 14.0961 83.6358 14.8628C83.1446 15.6247 82.8039 16.5511 82.6137 17.6423C82.4235 18.6842 82.4288 19.5542 82.6295 20.2521C82.7651 20.7114 82.9705 21.0973 83.2456 21.4098H88.6467C89.1226 21.0495 89.5387 20.5948 89.8951 20.0457C90.3864 19.2839 90.7297 18.3574 90.9251 17.2663ZM66.8406 15.4821H66.9674L70.3033 21.4098H65.778L66.8406 15.4821Z" fill="#0500FF"/>
</svg>
